# xmcd
#
# Track frame offsets:
# 150
# 16607
# 33750
# 53032
# 66182
# 84343
# 96004
# 114489
# 129780
# 146774
# 163070
# 181894
# 198968
# 213399
# 231983
#
# Disc length: 3290 seconds
#
#
# Revision: 0
# Processed by: cddbd v1.5PL3 Copyright (c) Steve Scherf et al.
# Submitted via: FreeRIP 2.53 
#
DISCID=bd0cd80f
DTITLE=Gill, Vince - Souvenirs
DYEAR=1900
DGENRE=
TTITLE0=Never Alone
TTITLE1=Never Knew Lonely
TTITLE2=When I Call Your Name
TTITLE3=Liza Jane
TTITLE4=Look At Us
TTITLE5=Take Your Memory With You
TTITLE6=Pocket Full Of Gold
TTITLE7=The Heart Won't Lie (Duet with Reba McEntire)
TTITLE8=Don't Let Our Love Start Slippin Away
TTITLE9=I Still Believe In You
TTITLE10=No Future In The Past
TTITLE11=Tryin' To Get Over You
TTITLE12=One More Last Chance
TTITLE13=I Can't Tell You Why
TTITLE14=I Will Always Love You (Duet with Dolly Parton)
EXTD=
EXTT0=
EXTT1=
EXTT2=
EXTT3=
EXTT4=
EXTT5=
EXTT6=
EXTT7=
EXTT8=
EXTT9=
EXTT10=
EXTT11=
EXTT12=
EXTT13=
EXTT14=
PLAYORDER=
